{"title":"[RhisiartK] Element Hunters - 03 (1280x720 8bit AVC MP3)","uid":8528987,"size":404920368,"categoryP":"video","categoryS":"hd___tv_shows","magnet":"?xt=urn:btih:dff954a5155a157e27efe975aaeed9d6b54d4760&amp;dn=%5BRhisiartK%5D+Element+Hunters+-+03+%281280x720+8bit+AVC+MP3%29&amp;tr=udp%3A%2F%2Ftracker.openbittorrent.com%3A80&amp;tr=udp%3A%2F%2Fopen.demonii.com%3A1337&amp;tr=udp%3A%2F%2Ftracker.coppersurfer.tk%3A6969&amp;tr=udp%3A%2F%2Fexodus.desync.com%3A6969","seeders":1,"leechers":0,"uploader":null,"files":-1,"time":1370097111,"description":"Elementhunters Episode 3. with Hungarian subtitle.\n\nComplete name                            : [RhisiartK] Elementhunters - 03 (1280x720 8bit AVC MP3)_with_sub.mkv\nFormat                                   : Matroska\nFormat version                           : Version 4 / Version 2\nFile size                                : 386 MiB\nDuration                                 : 24mn 30s\nOverall bit rate                         : 2 204 Kbps\nEncoded date                             : UTC 2013-06-01 12:25:00\nWriting application                      : mkvmerge v6.1.0 ('Old Devil') built on Mar  2 2013 14:32:37\nWriting library                          : libebml v1.3.0 + libmatroska v1.4.0\nAttachment                               : Yes / Yes / Yes / Yes\n\nVideo\nID                                       : 2\nFormat                                   : AVC\nFormat/Info                              : Advanced Video Codec\nFormat profile                           : &lt;a class=&quot;__cf_email__&quot; href=&quot;/cdn-cgi/l/email-protection&quot; data-cfemail=&quot;fab2939d92bab6ced4ca&quot;&gt;[email&amp;#160;protected]&lt;/a&gt;&lt;script cf-hash='f9e31' type=&quot;text/javascript&quot;&gt;\n/* &lt;![CDATA[ */!function(){try{var t=&quot;currentScript&quot;in document?document.currentScript:function(){for(var t=document.getElementsByTagName(&quot;script&quot;),e=t.length;e--;)if(t[e].getAttribute(&quot;cf-hash&quot;))return t[e]}();if(t&amp;&amp;t.previousSibling){var e,r,n,i,c=t.previousSibling,a=c.getAttribute(&quot;data-cfemail&quot;);if(a){for(e=&quot;&quot;,r=parseInt(a.substr(0,2),16),n=2;a.length-n;n+=2)i=parseInt(a.substr(n,2),16)^r,e+=String.fromCharCode(i);e=document.createTextNode(e),c.parentNode.replaceChild(e,c)}}}catch(u){}}();/* ]]&gt; */&lt;/script&gt;\nFormat settings, CABAC                   : No\nFormat settings, ReFrames                : 8 frames\nFormat settings, GOP                     : M=1, N=12\nCodec ID                                 : V_MPEG4/ISO/AVC\nDuration                                 : 24mn 30s\nBit rate                                 : 1 968 Kbps\nWidth                                    : 1 280 pixels\nHeight                                   : 720 pixels\nDisplay aspect ratio                     : 16:9\nFrame rate mode                          : Constant\nFrame rate                               : 24.000 fps\nColor space                              : YUV\nChroma subsampling                       : 4:2:0\nBit depth                                : 8 bits\nScan type                                : Progressive\nBits/(Pixel*Frame)                       : 0.089\nStream size                              : 345 MiB (89%)\nDefault                                  : Yes\nForced                                   : No\n\nAudio\nID                                       : 3\nFormat                                   : MPEG Audio\nFormat version                           : Version 1\nFormat profile                           : Layer 3\nMode                                     : Joint stereo\nMode extension                           : MS Stereo\nCodec ID                                 : A_MPEG/L3\nCodec ID/Hint                            : MP3\nDuration                                 : 24mn 30s\nBit rate mode                            : Constant\nBit rate                                 : 192 Kbps\nChannel(s)                               : 2 channels\nSampling rate                            : 48.0 KHz\nCompression mode                         : Lossy\nStream size                              : 33.6 MiB (9%)\nWriting library                          : LAME3.97\nLanguage                                 : Japanese\nDefault                                  : Yes\nForced                                   : No\n\nText\nID                                       : 1\nFormat                                   : ASS\nCodec ID                                 : S_TEXT/ASS\nCodec ID/Info                            : Advanced Sub Station Alpha\nCompression mode                         : Lossless\nLanguage                                 : Hungarian\nDefault                                  : Yes\nForced                                   : No\n","torrent":{"xt":"urn:btih:dff954a5155a157e27efe975aaeed9d6b54d4760","amp;dn":"%5BRhisiartK%5D+Element+Hunters+-+03+%281280x720+8bit+AVC+MP3%29","amp;tr":["udp%3A%2F%2Ftracker.openbittorrent.com%3A80","udp%3A%2F%2Fopen.demonii.com%3A1337","udp%3A%2F%2Ftracker.coppersurfer.tk%3A6969","udp%3A%2F%2Fexodus.desync.com%3A6969"],"infoHash":"dff954a5155a157e27efe975aaeed9d6b54d4760","infoHashBuffer":{"type":"Buffer","data":[223,249,84,165,21,90,21,126,39,239,233,117,170,238,217,214,181,77,71,96]},"announce":[],"urlList":[]}}